<svg id="Capa_1" data-name="Capa 1" xmlns="http://www.w3.org/2000/svg" viewBox="0 0 19.08 19.08"><defs><style>.cls-1{fill:#fff;}</style></defs><title>INSTA_BLANCO</title><path class="cls-1" d="M3840.1,49.71h-11.7a3.69,3.69,0,0,0-3.69,3.69V65.1a3.69,3.69,0,0,0,3.69,3.69h11.7a3.69,3.69,0,0,0,3.69-3.69V53.4A3.69,3.69,0,0,0,3840.1,49.71Zm1.06,2.2h0.42v3.23h-3.22V51.92h2.81Zm-9.63,5.38a3.35,3.35,0,1,1-.64,2A3.36,3.36,0,0,1,3831.53,57.29Zm10.4,7.81a1.83,1.83,0,0,1-1.83,1.83h-11.7a1.83,1.83,0,0,1-1.83-1.83V57.29h2.85a5.22,5.22,0,1,0,9.67,0h2.85V65.1Z" transform="translate(-3824.71 -49.71)"/></svg>