<svg id="Capa_1" data-name="Capa 1" xmlns="http://www.w3.org/2000/svg" viewBox="0 0 17.02 15.22"><defs><style>.cls-1{fill:#fff;}</style></defs><title>CORAZON</title><path class="cls-1" d="M3210.05,3189.49l0-.09,0.52-1.1a4.16,4.16,0,0,1,1.53-1.77,4,4,0,0,1,1.56-.58,4.43,4.43,0,0,1,1,0,4.08,4.08,0,0,1,2.75,1.22,4,4,0,0,1,1.07,2,5,5,0,0,1,.07,1.44,5.83,5.83,0,0,1-1.14,2.95,11.48,11.48,0,0,1-1.16,1.35c-0.52.53-1.07,1-1.62,1.52s-1.36,1.21-2,1.83a23,23,0,0,0-2.36,2.61l-0.17.22,0,0,0,0a23.42,23.42,0,0,0-2.74-3c-0.67-.61-1.35-1.21-2-1.82-0.5-.45-1-0.9-1.48-1.39a10.05,10.05,0,0,1-1.23-1.5,6,6,0,0,1-.86-2,5.51,5.51,0,0,1-.12-1c0-.17,0-0.34,0-0.5a4,4,0,0,1,2.94-3.78,4.44,4.44,0,0,1,1.53-.16,4,4,0,0,1,2.8,1.35,4.28,4.28,0,0,1,.68,1l0.52,1.11Z" transform="translate(-3201.55 -3185.9)"/></svg>