<svg id="Capa_1" data-name="Capa 1" xmlns="http://www.w3.org/2000/svg" viewBox="0 0 175.62 22.67"><defs><style>.cls-1{fill:#4b4f54;}</style></defs><title>azalea_txt</title><g id="_Grupo_" data-name="&lt;Grupo&gt;"><path class="cls-1" d="M1007.44,1119.47a0.62,0.62,0,0,1-.72-0.68,1.37,1.37,0,0,1,.1-0.47l7.7-21h1.58l7.7,21a1.37,1.37,0,0,1,.1.47,0.62,0.62,0,0,1-.72.68,0.87,0.87,0,0,1-.75-0.68L1020,1112h-9.31l-2.46,6.79A0.91,0.91,0,0,1,1007.44,1119.47Zm3.77-8.89h8.21l-4.14-11.16Z" transform="translate(-1006.73 -1096.8)"/><path class="cls-1" d="M1026.27,1118.93v-1.49l13.55-18.66H1027.3q-1.06,0-1.06-.71t1.06-.71h14.14v1.56l-13.49,18.59h12.46q1,0,1,.75t-1,.68h-14.14Z" transform="translate(-1006.73 -1096.8)"/><path class="cls-1" d="M1044.51,1119.47a0.62,0.62,0,0,1-.72-0.68,1.37,1.37,0,0,1,.1-0.47l7.7-21h1.58l7.7,21a1.37,1.37,0,0,1,.1.47,0.62,0.62,0,0,1-.72.68,0.87,0.87,0,0,1-.75-0.68L1057,1112h-9.31l-2.46,6.79A0.91,0.91,0,0,1,1044.51,1119.47Zm3.77-8.89h8.21l-4.14-11.16Z" transform="translate(-1006.73 -1096.8)"/><path class="cls-1" d="M1065.29,1118.93q-0.65,0-.65-1.05v-19.82q0-.95.72-1t0.72,1v19.44H1077a0.77,0.77,0,0,1,1,.75q0,0.68-1,.68h-11.67Z" transform="translate(-1006.73 -1096.8)"/><path class="cls-1" d="M1083,1107.49v10h12.77a0.8,0.8,0,0,1,1,.78q0,0.64-1,.64h-13.55q-0.65,0-.65-1.05V1098.4c0-.7.22-1.05,0.65-1.05h13.55a0.8,0.8,0,0,1,1,.78c0,0.43-.33.64-1,0.64H1083v7.3h8.73q1,0,1,.78t-1,.64H1083Z" transform="translate(-1006.73 -1096.8)"/><path class="cls-1" d="M1100,1119.47a0.62,0.62,0,0,1-.72-0.68,1.37,1.37,0,0,1,.1-0.47l7.7-21h1.58l7.7,21a1.37,1.37,0,0,1,.1.47,0.62,0.62,0,0,1-.72.68,0.87,0.87,0,0,1-.75-0.68l-2.46-6.79h-9.31l-2.46,6.79A0.91,0.91,0,0,1,1100,1119.47Zm3.77-8.89h8.21l-4.14-11.16Z" transform="translate(-1006.73 -1096.8)"/><path class="cls-1" d="M1142.51,1098.06a0.77,0.77,0,0,1,.75-1q0.68,0,.68,1v13.17a7.93,7.93,0,0,1-2.14,5.87,8,8,0,0,1-10.92,0,7.93,7.93,0,0,1-2.14-5.87v-13.17q0-.95.72-1t0.72,1v13.17a6.78,6.78,0,0,0,1.64,4.83,6.72,6.72,0,0,0,9,0,6.78,6.78,0,0,0,1.64-4.83v-13.17Z" transform="translate(-1006.73 -1096.8)"/><path class="cls-1" d="M1150.89,1118.25a0.75,0.75,0,0,1-.75.92q-0.69,0-.68-0.92V1098.4c0-.7.22-1.05,0.65-1.05h6a10.36,10.36,0,0,1,5.3,1.09q1.78,1.09,1.78,4a4.71,4.71,0,0,1-1.49,3.77,6.15,6.15,0,0,1-4.16,1.29h-6.67v10.76Zm5.24-12.18a9.64,9.64,0,0,0,4.36-.71q1.28-.71,1.28-2.92t-1.28-3a9.64,9.64,0,0,0-4.36-.71h-5.24v7.3h5.24Z" transform="translate(-1006.73 -1096.8)"/><path class="cls-1" d="M1165.17,1097.48a0.59,0.59,0,0,1,.15-0.41,0.76,0.76,0,0,1,.31-0.22,0.87,0.87,0,0,1,.26-0.05,0.91,0.91,0,0,1,.75.68l7.12,19.41,7.12-19.41a0.74,0.74,0,0,1,1-.63,0.76,0.76,0,0,1,.31.22,0.59,0.59,0,0,1,.15.41,1.66,1.66,0,0,1-.1.51l-7.7,20.94H1173l-7.7-20.94A1.66,1.66,0,0,1,1165.17,1097.48Z" transform="translate(-1006.73 -1096.8)"/></g></svg>